<svg xmlns="http://www.w3.org/2000/svg" viewBox="0 0 276.15 66.71"><defs><style>.cls-1{fill:#FFC107;}</style></defs><title>faceup</title><g id="Calque_2" data-name="Calque 2"><g id="Calque_1-2" data-name="Calque 1"><polygon class="cls-1" points="72.41 7.69 72.41 28.09 90.68 28.09 90.68 28.92 72.41 28.92 72.41 52.28 65.71 52.28 65.71 6.74 72.41 6.74 95.66 6.74 95.66 7.69 72.41 7.69"/><path class="cls-1" d="M124.12,28V52.28h-6.58V48.9c-1.6,1-6.58,3.91-12,3.91-8.42,0-11.44-3.91-11.44-8.24,0-9.43,14-10,23.36-18.38-.24-4.92-2-7.35-7.53-7.35-6,0-6.82,5.87-7.24,10.19H94.89c2.19-7.11,7.59-11.14,15.06-11.14,6.46,0,14.17,1.72,14.17,10.14m-15.54,23.3c3.09,0,6.94-2,9-3.32V27.26c-8.3,8.18-15.6,12-15.6,18,0,4.27,2.37,6.11,6.64,6.11"/><path class="cls-1" d="M147.3,17.77c5.52,0,10,3.32,12.45,7.83H153c-.47-2.44-1.72-5.87-6.82-5.87-7.76,0-9.72,9.54-9.72,14.82,0,10.67,5,16.13,11.5,16.25h.24c3.62,0,7.06-1.25,11.8-5.1l.48.59a22,22,0,0,1-14.89,6.17c-9,0-16.84-6.23-16.84-17.91,0-10.26,8.13-16.78,18.56-16.78"/><path class="cls-1" d="M182.58,17.83c6.88,0,11.92,4.8,13.82,11.2H172.26a24.75,24.75,0,0,0-.65,5.58c0,10.67,5.1,16.13,11.56,16.24h.24c3.62,0,7.12-1.24,11.86-5.09l.47.59a22,22,0,0,1-14.94,6.16c-9,0-16.9-6.22-16.9-17.9,0-10.26,8.24-16.78,18.68-16.78m-1.19,2c-5.09,0-7.7,4.1-8.89,8.42h16c-.47-4.27-1.6-8.42-7.12-8.42"/><path class="cls-1" d="M219.4,51.86c10.85,0,11-7.29,11-18.08v-27h6.76V31.47c0,15.65-3.67,21.34-17.73,21.34s-17.73-5.69-17.73-21.34V6.74h6.76v27c0,10.79.12,18.08,11,18.08"/><path class="cls-1" d="M264.05,18a8.58,8.58,0,0,1,1.24.06c7.54.94,10.86,6.76,10.86,17.19,0,11.33-4.45,17.43-13.46,17.43-5,0-8.84-2.49-12.57-9.07V66.71h-6.53V18.06h6.53V37.22C252.31,30,255.27,18,264.05,18m-1.78,33.68c4.92,0,6.94-5.64,6.94-16.43,0-8.89-2.91-12.33-6.88-12.39h-.06c-5.34,0-10.79,11.56-12.15,17.55v1.9c3.73,6.64,8.24,9.37,12.15,9.37"/><path class="cls-1" d="M23,0C17.08,0,11.51,3,7.24,8.48,2.64,14.38,0,22.71,0,31.34,0,48.61,10.29,62.67,23,62.67S45.89,48.61,45.89,31.34,35.6,0,23,0M2.69,41.91H43.2A34.81,34.81,0,0,1,41,48H5a34,34,0,0,1-2.26-6.08m18.65-2.55L1.68,25.79a35.13,35.13,0,0,1,6-15.65ZM44.22,25.79,24.56,39.36,38.27,10.14a35,35,0,0,1,5.95,15.65M37.38,9,23.6,38.35v-37C28.88,1.54,33.69,4.39,37.38,9M22.3,1.32v37L8.52,9c3.81-4.74,8.67-7.44,13.78-7.65M1.51,27.26,20.86,40.61H2.36A40.38,40.38,0,0,1,1.3,31.34c0-1.38.08-2.74.21-4.08m9.84,29.42H34.54A17.48,17.48,0,0,1,23,61.37a17.49,17.49,0,0,1-11.6-4.69m24.55-1.3H10a27.71,27.71,0,0,1-4.38-6.09H40.29a27.75,27.75,0,0,1-4.39,6.09m7.63-14.77H25L44.39,27.26c.13,1.33.2,2.69.2,4.08a40.38,40.38,0,0,1-1.06,9.27"/><path class="cls-1" d="M95.18,61.11A2.8,2.8,0,1,1,92.5,63.9a2.63,2.63,0,0,1,2.68-2.79m0,.6a2.21,2.21,0,1,0,2,2.19,2,2,0,0,0-2-2.19"/><path class="cls-1" d="M101.42,65.33a2.32,2.32,0,0,0,1.7.77c1,0,1.27-.52,1.27-.94,0-.64-.65-.82-1.37-1s-1.83-.47-1.83-1.53c0-.89.8-1.5,1.86-1.5a2.56,2.56,0,0,1,1.92.76l-.41.49a2.08,2.08,0,0,0-1.56-.65c-.65,0-1.11.35-1.11.86s.62.71,1.31.89c.89.24,1.89.51,1.89,1.65,0,.78-.53,1.59-2,1.59a2.7,2.7,0,0,1-2.08-.86Z"/><polygon class="cls-1" points="109.81 61.79 108.11 61.79 108.11 61.2 112.2 61.2 112.2 61.79 110.49 61.79 110.49 66.6 109.81 66.6 109.81 61.79"/><path class="cls-1" d="M115.53,61.19h3.54v.6H116.2v1.75H119v.6H116.2V66h2.87v.6h-3.54Zm1.56-.45,1.2-1.17h.63l-1.37,1.17Z"/><path class="cls-1" d="M125,61.11a2.8,2.8,0,1,1-2.68,2.79A2.63,2.63,0,0,1,125,61.11m0,.6a2.21,2.21,0,1,0,2,2.19,2,2,0,0,0-2-2.19"/><path class="cls-1" d="M131.2,61.19h2.17a1.63,1.63,0,1,1,0,3.26h-1.5V66.6h-.67Zm2.09.6h-1.42v2.06h1.42a1,1,0,1,0,0-2.06"/><path class="cls-1" d="M141.17,65.4h-2.74L138,66.6h-.75l2.17-5.4h.84l2.18,5.4h-.75Zm-2.55-.6H141l-1.16-3Z"/><polygon class="cls-1" points="146.32 61.79 144.61 61.79 144.61 61.2 148.71 61.2 148.71 61.79 146.99 61.79 146.99 66.6 146.32 66.6 146.32 61.79"/><polygon class="cls-1" points="155.87 64.12 152.71 64.12 152.71 66.6 152.03 66.6 152.03 61.2 152.71 61.2 152.71 63.52 155.87 63.52 155.87 61.2 156.54 61.2 156.54 66.6 155.87 66.6 155.87 64.12"/><polygon class="cls-1" points="160.23 61.2 163.77 61.2 163.77 61.8 160.91 61.8 160.91 63.54 163.72 63.54 163.72 64.14 160.91 64.14 160.91 66 163.77 66 163.77 66.6 160.23 66.6 160.23 61.2"/><polygon class="cls-1" points="171.8 61.2 175.34 61.2 175.34 61.8 172.47 61.8 172.47 63.54 175.28 63.54 175.28 64.14 172.47 64.14 172.47 66.6 171.8 66.6 171.8 61.2"/><path class="cls-1" d="M181.79,65.4h-2.73l-.48,1.2h-.75L180,61.2h.84L183,66.6h-.75Zm-2.54-.6h2.34l-1.16-3Z"/><path class="cls-1" d="M185.64,63.9a2.69,2.69,0,0,1,2.75-2.79,2.43,2.43,0,0,1,2.07,1.06l-.56.32a1.85,1.85,0,0,0-1.51-.78,2.2,2.2,0,0,0,0,4.39,1.83,1.83,0,0,0,1.51-.79l.57.32a2.46,2.46,0,0,1-2.08,1.07,2.7,2.7,0,0,1-2.75-2.8"/><rect class="cls-1" x="193.76" y="61.19" width="0.67" height="5.4"/><path class="cls-1" d="M201.53,65.4H198.8l-.48,1.2h-.75l2.17-5.4h.84l2.18,5.4H202ZM199,64.8h2.34l-1.16-3Z"/><polygon class="cls-1" points="205.89 61.2 206.57 61.2 206.57 66 209.08 66 209.08 66.6 205.89 66.6 205.89 61.2"/><rect class="cls-1" x="212.46" y="61.19" width="0.67" height="5.4"/><path class="cls-1" d="M216.9,65.33a2.3,2.3,0,0,0,1.7.77c1,0,1.27-.52,1.27-.94,0-.64-.65-.82-1.37-1s-1.83-.47-1.83-1.53c0-.89.8-1.5,1.86-1.5a2.56,2.56,0,0,1,1.92.76l-.41.49a2.08,2.08,0,0,0-1.56-.65c-.65,0-1.11.35-1.11.86s.62.71,1.31.89c.88.24,1.89.51,1.89,1.65,0,.78-.54,1.59-2,1.59a2.7,2.7,0,0,1-2.08-.86Z"/><polygon class="cls-1" points="225.29 61.79 223.58 61.79 223.58 61.2 227.68 61.2 227.68 61.79 225.97 61.79 225.97 66.6 225.29 66.6 225.29 61.79"/><polygon class="cls-1" points="231.01 61.2 234.55 61.2 234.55 61.8 231.68 61.8 231.68 63.54 234.49 63.54 234.49 64.14 231.68 64.14 231.68 66 234.55 66 234.55 66.6 231.01 66.6 231.01 61.2"/></g></g></svg>