<svg xmlns="http://www.w3.org/2000/svg" viewBox="0 0 383.93 384"><defs><style>.cls-1{fill:#fff;}</style></defs><title>instagram</title><g id="Calque_2" data-name="Calque 2"><g id="Calque_1-2" data-name="Calque 1"><path class="cls-1" d="M383,112.9c-.9-20.41-4.2-34.44-8.93-46.59a98.36,98.36,0,0,0-56.18-56.18c-12.23-4.73-26.18-8-46.59-8.93S244.17,0,192,0s-58.66.23-79.14,1.13-34.43,4.2-46.58,8.92A93.84,93.84,0,0,0,32.25,32.26a94.41,94.41,0,0,0-22.12,34C5.4,78.46,2.1,92.42,1.2,112.82.22,133.38,0,139.9,0,192s.22,58.66,1.13,79.14,4.19,34.43,8.92,46.58A98.31,98.31,0,0,0,66.24,374c12.22,4.73,26.18,8,46.58,8.93S139.83,384,192,384s58.66-.22,79.14-1.12,34.44-4.2,46.59-8.93a98.23,98.23,0,0,0,56.18-56.19c4.73-12.22,8-26.18,8.93-46.58s1.13-27,1.13-79.14-.08-58.66-1-79.14ZM348.37,269.68c-.83,18.75-4,28.88-6.6,35.63a63.71,63.71,0,0,1-36.46,36.46c-6.75,2.63-17,5.77-35.63,6.6-20.26.9-26.33,1.12-77.57,1.12s-57.38-.22-77.56-1.12c-18.76-.83-28.89-4-35.64-6.6a59.11,59.11,0,0,1-22-14.33,59.75,59.75,0,0,1-14.33-22.05c-2.62-6.76-5.77-17-6.6-35.64-.9-20.25-1.12-26.33-1.12-77.56s.22-57.39,1.12-77.57c.83-18.75,4-28.88,6.6-35.63A58.37,58.37,0,0,1,56.94,56.93,59.56,59.56,0,0,1,79,42.61C85.74,40,96,36.83,114.62,36c20.25-.9,26.33-1.13,77.57-1.13s57.38.23,77.56,1.13c18.76.82,28.88,4,35.63,6.6a59,59,0,0,1,22.06,14.32A59.83,59.83,0,0,1,341.77,79c2.62,6.75,5.77,17,6.6,35.63.9,20.26,1.12,26.33,1.12,77.57s-.22,57.23-1.12,77.49Z"/><path class="cls-1" d="M192,93.39A98.65,98.65,0,1,0,290.68,192,98.67,98.67,0,0,0,192,93.39ZM192,256a64,64,0,1,1,64-64,64,64,0,0,1-64,64Z"/><path class="cls-1" d="M317.61,89.49a23,23,0,1,1-23-23,23,23,0,0,1,23,23Z"/></g></g></svg>