<svg xmlns="http://www.w3.org/2000/svg" viewBox="0 0 260.66 62.67"><defs><style>.cls-1{fill:#f9b030;}</style></defs><title>logo-faceup1</title><g id="Calque_2" data-name="Calque 2"><g id="Calque_1-2" data-name="Calque 1"><path class="cls-1" d="M23,0C17.08,0,11.51,3,7.24,8.48,2.64,14.38,0,22.71,0,31.34,0,48.61,10.29,62.67,23,62.67S45.89,48.61,45.89,31.34,35.6,0,23,0M2.69,41.91H43.2A34.52,34.52,0,0,1,41,48h-36a34.52,34.52,0,0,1-2.25-6.08m18.65-2.55L1.68,25.8a35.13,35.13,0,0,1,6-15.66ZM44.22,25.79,24.56,39.36l13.7-29.22a34.89,34.89,0,0,1,6,15.65M37.38,9,23.6,38.35v-37C28.88,1.54,33.69,4.39,37.38,9M22.3,1.32v37L8.51,9c3.82-4.74,8.68-7.44,13.79-7.65M1.51,27.26,20.86,40.61H2.36A40.38,40.38,0,0,1,1.3,31.34c0-1.38.08-2.74.21-4.08m9.84,29.42H34.54A17.48,17.48,0,0,1,23,61.37a17.49,17.49,0,0,1-11.6-4.69m24.55-1.3H10A28.26,28.26,0,0,1,5.6,49.3H40.28a27.89,27.89,0,0,1-4.38,6.08m7.63-14.77H25L44.39,27.26c.13,1.33.2,2.69.2,4.08a40.38,40.38,0,0,1-1.06,9.27"/><polygon class="cls-1" points="65.4 7.42 87.28 7.42 87.28 13.08 71.98 13.08 71.98 19.8 86.95 19.8 86.95 25.46 71.98 25.46 71.98 38.34 65.4 38.34 65.4 7.42"/><path class="cls-1" d="M114.21,33H100.4l-2,5.34H91.22l12-30.93h8.25l11.92,30.93h-7.19Zm-12-5.7H112.4l-5.1-14.19Z"/><path class="cls-1" d="M127.79,22.91c0-9.51,7.19-16,16.23-16a14.27,14.27,0,0,1,13.17,7.56l-5.66,2.78a8.48,8.48,0,0,0-7.51-4.5c-5.38,0-9.46,4.31-9.46,10.16s4.08,10.15,9.46,10.15a8.39,8.39,0,0,0,7.51-4.5l5.66,2.74A14.35,14.35,0,0,1,144,38.9c-9,0-16.23-6.49-16.23-16"/><polygon class="cls-1" points="165.76 7.42 187.65 7.42 187.65 13.08 172.34 13.08 172.34 19.8 187.32 19.8 187.32 25.46 172.34 25.46 172.34 32.64 187.65 32.64 187.65 38.34 165.76 38.34 165.76 7.42"/><path class="cls-1" d="M197.42,7.42h6.68V25.78c0,4.31,2.36,7.28,7.19,7.28s7.09-3,7.09-7.28V7.42h6.68V26c0,7.69-4.41,12.93-13.77,12.93S197.42,33.62,197.42,26Z"/><path class="cls-1" d="M235.81,7.42h14.46c6.73,0,10.39,4.54,10.39,10s-3.71,9.87-10.39,9.87h-7.88V38.35h-6.58Zm13.58,5.66h-7v8.53h7a4.27,4.27,0,1,0,0-8.53"/><path class="cls-1" d="M69,48.31a3.24,3.24,0,1,1-3.2,3.24A3.11,3.11,0,0,1,69,48.31m0,1A2.27,2.27,0,1,0,71,51.55,2.06,2.06,0,0,0,69,49.29"/><path class="cls-1" d="M75.31,53a2.7,2.7,0,0,0,2,.86c.9,0,1.26-.44,1.26-.85,0-.57-.67-.74-1.43-.93-1-.26-2.22-.56-2.22-1.88,0-1,.91-1.83,2.28-1.83a3.26,3.26,0,0,1,2.34.87l-.63.82a2.51,2.51,0,0,0-1.81-.71c-.64,0-1.06.31-1.06.78s.64.64,1.38.83c1,.26,2.26.58,2.26,1.94,0,1-.73,1.93-2.42,1.93a3.34,3.34,0,0,1-2.54-1Z"/><polygon class="cls-1" points="83.95 49.38 82.06 49.38 82.06 48.42 86.94 48.42 86.94 49.38 85.05 49.38 85.05 54.67 83.95 54.67 83.95 49.38"/><path class="cls-1" d="M89.75,48.42H94v1H90.85V51H94v1H90.85v1.74H94v1H89.75Zm1.82-.53,1.31-1.35h.94l-1.55,1.35Z"/><path class="cls-1" d="M100,48.31a3.24,3.24,0,1,1-3.19,3.24A3.1,3.1,0,0,1,100,48.31m0,1A2.27,2.27,0,1,0,102,51.55,2.07,2.07,0,0,0,100,49.29"/><path class="cls-1" d="M106.09,48.42h2.75a2,2,0,1,1,0,3.92h-1.65v2.33h-1.1Zm2.6,1h-1.5v2h1.5a1,1,0,1,0,0-2"/><path class="cls-1" d="M116.93,53.47h-3l-.46,1.2h-1.2l2.46-6.25h1.37l2.45,6.25h-1.2Zm-2.65-1h2.34l-1.17-3.16Z"/><polygon class="cls-1" points="122.04 49.38 120.14 49.38 120.14 48.42 125.03 48.42 125.03 49.38 123.14 49.38 123.14 54.67 122.04 54.67 122.04 49.38"/><polygon class="cls-1" points="132.19 51.94 128.93 51.94 128.93 54.67 127.83 54.67 127.83 48.42 128.93 48.42 128.93 50.98 132.19 50.98 132.19 48.42 133.28 48.42 133.28 54.67 132.19 54.67 132.19 51.94"/><polygon class="cls-1" points="136.5 48.42 140.78 48.42 140.78 49.38 137.59 49.38 137.59 51.01 140.72 51.01 140.72 51.97 137.59 51.97 137.59 53.71 140.78 53.71 140.78 54.67 136.5 54.67 136.5 48.42"/><polygon class="cls-1" points="148.07 48.42 152.36 48.42 152.36 49.38 149.17 49.38 149.17 51.01 152.29 51.01 152.29 51.97 149.17 51.97 149.17 54.67 148.07 54.67 148.07 48.42"/><path class="cls-1" d="M158.81,53.47h-3l-.46,1.2h-1.2l2.45-6.25H158l2.46,6.25h-1.2Zm-2.65-1h2.34l-1.17-3.16Z"/><path class="cls-1" d="M162.42,51.55a3.15,3.15,0,0,1,3.24-3.24,2.86,2.86,0,0,1,2.56,1.41l-.94.48a1.87,1.87,0,0,0-1.62-.91,2.27,2.27,0,0,0,0,4.52,1.87,1.87,0,0,0,1.62-.91l.94.48a2.86,2.86,0,0,1-2.56,1.4,3.15,3.15,0,0,1-3.24-3.23"/><rect class="cls-1" x="170.98" y="48.42" width="1.1" height="6.26"/><path class="cls-1" d="M179.25,53.47h-3l-.46,1.2h-1.2l2.46-6.25h1.36l2.46,6.25h-1.2Zm-2.65-1h2.34l-1.17-3.16Z"/><polygon class="cls-1" points="183.47 48.42 184.57 48.42 184.57 53.71 187.33 53.71 187.33 54.67 183.47 54.67 183.47 48.42"/><rect class="cls-1" x="190.2" y="48.42" width="1.1" height="6.26"/><path class="cls-1" d="M194.71,53a2.7,2.7,0,0,0,2,.86c.9,0,1.26-.44,1.26-.85,0-.57-.67-.74-1.43-.93-1-.26-2.22-.56-2.22-1.88,0-1,.91-1.83,2.28-1.83a3.26,3.26,0,0,1,2.34.87l-.63.82a2.51,2.51,0,0,0-1.81-.71c-.64,0-1,.31-1,.78s.63.64,1.37.83c1,.26,2.26.58,2.26,1.94,0,1-.73,1.93-2.42,1.93a3.36,3.36,0,0,1-2.54-1Z"/><polygon class="cls-1" points="203.35 49.38 201.46 49.38 201.46 48.42 206.34 48.42 206.34 49.38 204.45 49.38 204.45 54.67 203.35 54.67 203.35 49.38"/><polygon class="cls-1" points="209.15 48.42 213.44 48.42 213.44 49.38 210.25 49.38 210.25 51.01 213.37 51.01 213.37 51.97 210.25 51.97 210.25 53.71 213.44 53.71 213.44 54.67 209.15 54.67 209.15 48.42"/></g></g></svg>